<svg xmlns="http://www.w3.org/2000/svg" width="22" height="20"><path fill="#FBFBFB" fill-rule="evenodd" d="M21.377 14.326L14.152 1.82a3.645 3.645 0 0 0-6.312 0L.488 14.54a3.636 3.636 0 0 0 0 3.64A3.645 3.645 0 0 0 3.644 20h14.712A3.643 3.643 0 0 0 22 16.36c0-.753-.23-1.455-.623-2.034zm-8.821 1.217c0 .861-.663 1.519-1.556 1.519s-1.556-.658-1.556-1.519v-.035c0-.857.663-1.519 1.556-1.519s1.556.658 1.556 1.519v.035zm.036-10.238l-.77 6.717c-.052.484-.373.785-.822.785-.449 0-.77-.305-.822-.785l-.77-6.721c-.051-.519.23-.912.715-.912h1.75c.485.004.771.397.719.916z"/></svg>