<svg xmlns="http://www.w3.org/2000/svg" width="149" height="36"><defs><linearGradient id="a" x1="0%" x2="0%" y1="0%" y2="100%"><stop offset="0%" stop-color="#13D8A7"/><stop offset="100%" stop-color="#23A695"/></linearGradient></defs><text x="41" y="22" fill="#FFF" font-family="Nunito" font-size="14">Validators App</text><path fill="#16D1A5" fill-rule="evenodd" d="M148 5a1 1 0 0 1 1 1v24a1 1 0 0 1-2 0V6a1 1 0 0 1 1-1z"/><path fill="#FFF" fill-rule="evenodd" d="M12.384 34.325c-3.265-2.012-9.583-5.904-10.511-6.478C.002 26.566.002 24.523.002 24.523V11.47s0-2.224 1.888-3.339l10.494-6.468C16-.564 16-.564 19.622 1.667l10.479 6.458c1.897 1.178 1.896 3.341 1.896 3.341v13.058s.001 2.141-1.896 3.339l-10.483 6.46C16 36.555 16 36.555 12.384 34.325z"/><path fill="url(#a)" d="M12.384 34.325c-3.265-2.012-9.583-5.904-10.511-6.478C.002 26.566.002 24.523.002 24.523V11.47s0-2.224 1.888-3.339l10.494-6.468C16-.564 16-.564 19.622 1.667l10.479 6.458c1.897 1.178 1.896 3.341 1.896 3.341v13.058s.001 2.141-1.896 3.339l-10.483 6.46C16 36.555 16 36.555 12.384 34.325z"/><path fill="#FFF" fill-rule="evenodd" d="M23.01 12.007l-5.107 6.504 5.104 6.499h-3.806L16 20.934l-3.201 4.076H8.994l5.103-6.499-5.107-6.504h3.805L16 16.088l3.205-4.081h3.805z"/></svg>