<svg xmlns="http://www.w3.org/2000/svg" width="149" height="36">
    <defs>
        <linearGradient id="a" x1="0%" x2="0%" y1="0%" y2="100%">
            <stop offset="0%" stop-color="#13D8A7"/>
            <stop offset="100%" stop-color="#23A695"/>
        </linearGradient>
    </defs>
    <path fill="#FFF" fill-rule="evenodd" d="M131.269 20.361a2.874 2.874 0 0 1-1.064 1.225c-.457.289-.984.434-1.582.434-.55 0-1.026-.119-1.428-.357a2.249 2.249 0 0 1-.91-1.043v3.458c0 .13-.037.235-.112.315a.402.402 0 0 1-.308.119.43.43 0 0 1-.315-.119.43.43 0 0 1-.119-.315v-8.652c0-.131.04-.236.119-.315a.43.43 0 0 1 .315-.119c.131 0 .234.04.308.119a.438.438 0 0 1 .112.315v.938c.206-.457.509-.805.91-1.043.402-.238.878-.357 1.428-.357.598 0 1.125.147 1.582.441.458.294.812.709 1.064 1.246s.378 1.16.378 1.869c0 .7-.126 1.314-.378 1.841zm-1.099-3.913c-.396-.495-.949-.742-1.659-.742-.709 0-1.257.243-1.645.728-.387.485-.581 1.171-.581 2.058 0 .887.192 1.57.574 2.051.383.481.929.721 1.638.721.719 0 1.277-.24 1.673-.721.397-.481.595-1.155.595-2.023 0-.887-.198-1.577-.595-2.072zm-7.987 5.138c-.457.289-.984.434-1.582.434-.55 0-1.026-.119-1.428-.357a2.249 2.249 0 0 1-.91-1.043v3.458c0 .13-.037.235-.112.315a.402.402 0 0 1-.308.119.43.43 0 0 1-.315-.119.43.43 0 0 1-.119-.315v-8.652c0-.131.04-.236.119-.315a.43.43 0 0 1 .315-.119c.131 0 .234.04.308.119a.438.438 0 0 1 .112.315v.938c.206-.457.509-.805.91-1.043.402-.238.878-.357 1.428-.357.598 0 1.125.147 1.582.441.458.294.812.709 1.064 1.246s.378 1.16.378 1.869c0 .7-.126 1.314-.378 1.841a2.874 2.874 0 0 1-1.064 1.225zm-.035-5.138c-.396-.495-.949-.742-1.659-.742-.709 0-1.257.243-1.645.728-.387.485-.581 1.171-.581 2.058 0 .887.192 1.57.574 2.051.383.481.929.721 1.638.721.719 0 1.277-.24 1.673-.721.397-.481.595-1.155.595-2.023 0-.887-.198-1.577-.595-2.072zm-6.726 5.544a.39.39 0 0 1-.217-.07.447.447 0 0 1-.161-.196l-1.064-2.436h-5.432l-1.078 2.436c-.084.177-.215.266-.392.266a.418.418 0 0 1-.287-.105.345.345 0 0 1-.119-.273c0-.065.009-.117.028-.154l4.088-9.184a.46.46 0 0 1 .462-.308.53.53 0 0 1 .287.084.473.473 0 0 1 .189.224l4.074 9.184a.373.373 0 0 1 .042.168.324.324 0 0 1-.126.259.445.445 0 0 1-.294.105zm-4.158-8.876l-2.394 5.418h4.774l-2.38-5.418zm-12.803 4.711c.238.107.581.212 1.029.315.644.149 1.138.308 1.484.476.345.168.592.369.742.602.149.233.224.532.224.896 0 .569-.241 1.029-.721 1.379-.481.35-1.118.525-1.911.525-.392 0-.777-.054-1.155-.161a3.672 3.672 0 0 1-1.001-.441 1.7 1.7 0 0 1-.371-.315.474.474 0 0 1-.105-.301c0-.093.03-.173.091-.238a.286.286 0 0 1 .217-.098c.084 0 .228.07.434.21.27.177.548.322.833.434.284.112.641.168 1.071.168.55 0 .98-.1 1.288-.301a.968.968 0 0 0 .462-.861.878.878 0 0 0-.168-.553c-.112-.145-.299-.271-.56-.378-.262-.107-.635-.212-1.12-.315-.831-.187-1.421-.427-1.771-.721-.35-.294-.525-.688-.525-1.183 0-.597.233-1.08.7-1.449.466-.369 1.073-.553 1.82-.553.364 0 .711.047 1.043.14.331.093.618.229.861.406.326.224.49.443.49.658a.366.366 0 0 1-.091.245.279.279 0 0 1-.217.105c-.094 0-.238-.075-.434-.224a4.254 4.254 0 0 0-.749-.427c-.248-.107-.563-.161-.945-.161-.486 0-.873.11-1.162.329-.29.219-.434.516-.434.889 0 .215.049.392.147.532.098.14.266.264.504.371zm-3.213-2.051c-.663.065-1.155.303-1.477.714a2.269 2.269 0 0 0-.483 1.442v3.626c0 .14-.038.247-.112.322a.42.42 0 0 1-.308.112.443.443 0 0 1-.315-.112c-.08-.075-.119-.182-.119-.322v-6.132c0-.14.039-.247.119-.322a.438.438 0 0 1 .315-.112c.121 0 .219.037.294.112a.419.419 0 0 1 .112.308v.91c.382-.803 1.092-1.241 2.128-1.316l.196-.014c.177-.009.303.014.378.07.074.056.112.149.112.28 0 .233-.14.364-.42.392l-.42.042zm-6.104 5.81c-.476.289-1.022.434-1.638.434-.626 0-1.174-.145-1.645-.434a2.905 2.905 0 0 1-1.099-1.232c-.262-.532-.392-1.153-.392-1.862 0-.709.13-1.33.392-1.862a2.905 2.905 0 0 1 1.099-1.232c.471-.289 1.019-.434 1.645-.434.616 0 1.162.145 1.638.434.476.289.842.7 1.099 1.232.256.532.385 1.153.385 1.862 0 .709-.129 1.33-.385 1.862a2.854 2.854 0 0 1-1.099 1.232zm.007-5.145c-.397-.49-.945-.735-1.645-.735-.71 0-1.26.245-1.652.735-.392.49-.588 1.174-.588 2.051 0 .896.191 1.582.574 2.058.382.476.933.714 1.652.714.718 0 1.274-.238 1.666-.714.392-.476.588-1.162.588-2.058 0-.877-.199-1.561-.595-2.051zm-7.399 4.382c.224.247.574.39 1.05.427l.378.028c.261.028.392.149.392.364a.319.319 0 0 1-.126.266c-.084.065-.22.093-.406.084l-.392-.028c-.71-.047-1.235-.264-1.575-.651-.341-.387-.511-.978-.511-1.771v-3.724h-1.064a.373.373 0 0 1-.266-.091.316.316 0 0 1-.098-.245c0-.103.032-.187.098-.252a.36.36 0 0 1 .266-.098h1.064v-1.736c0-.14.037-.247.112-.322a.413.413 0 0 1 .308-.112c.13 0 .235.037.315.112.079.075.119.182.119.322v1.736h1.694c.121 0 .214.033.28.098a.341.341 0 0 1 .098.252.32.32 0 0 1-.098.245c-.066.061-.159.091-.28.091h-1.694v3.766c0 .579.112.992.336 1.239zm-4.172 1.155a.404.404 0 0 1-.308-.119.438.438 0 0 1-.112-.315v-.84c-.196.42-.481.744-.854.973a2.413 2.413 0 0 1-1.288.343c-.439 0-.84-.089-1.204-.266a2.123 2.123 0 0 1-.861-.742 1.861 1.861 0 0 1-.315-1.05c0-.504.131-.896.392-1.176.261-.28.695-.481 1.302-.602.607-.121 1.451-.182 2.534-.182h.294v-.518c0-.616-.126-1.066-.378-1.351-.252-.285-.649-.427-1.19-.427-.691 0-1.349.182-1.974.546l-.217.147c-.117.079-.217.119-.301.119a.293.293 0 0 1-.231-.105.38.38 0 0 1-.091-.259c0-.205.163-.406.49-.602a4.385 4.385 0 0 1 1.092-.434 4.77 4.77 0 0 1 1.19-.154c.821 0 1.435.215 1.841.644.406.429.609 1.078.609 1.946v3.99a.438.438 0 0 1-.112.315.404.404 0 0 1-.308.119zm-.42-3.346h-.266c-.896 0-1.582.037-2.058.112-.476.075-.812.203-1.008.385-.196.182-.294.446-.294.791 0 .392.149.716.448.973.299.257.667.385 1.106.385.607 0 1.104-.205 1.491-.616.387-.411.581-.933.581-1.568v-.462zm-6.972 3.346a.404.404 0 0 1-.308-.119.438.438 0 0 1-.112-.315v-.924a2.244 2.244 0 0 1-.91 1.043c-.401.238-.877.357-1.428.357-.597 0-1.125-.147-1.582-.441a2.91 2.91 0 0 1-1.064-1.246c-.252-.537-.378-1.16-.378-1.869 0-.7.126-1.314.378-1.841a2.88 2.88 0 0 1 1.064-1.225c.457-.289.985-.434 1.582-.434.551 0 1.027.119 1.428.357s.705.586.91 1.043v-3.948c0-.131.037-.236.112-.315a.404.404 0 0 1 .308-.119c.131 0 .236.04.315.119a.426.426 0 0 1 .119.315v9.128c0 .131-.04.236-.119.315a.426.426 0 0 1-.315.119zm-.994-5.544c-.383-.485-.929-.728-1.638-.728-.719 0-1.274.24-1.666.721-.392.481-.588 1.16-.588 2.037 0 .887.196 1.575.588 2.065.392.49.943.735 1.652.735s1.258-.24 1.645-.721.581-1.164.581-2.051c0-.887-.191-1.573-.574-2.058zm-7.028-3.024a.63.63 0 0 1-.455-.168.574.574 0 0 1-.175-.434.59.59 0 0 1 .175-.448.63.63 0 0 1 .455-.168.63.63 0 0 1 .455.168.59.59 0 0 1 .175.448.574.574 0 0 1-.175.434.63.63 0 0 1-.455.168zm-3.108 8.582a.446.446 0 0 1-.315-.112c-.079-.075-.119-.182-.119-.322v-9.142c0-.14.04-.247.119-.322a.442.442 0 0 1 .315-.112c.122 0 .222.037.301.112.08.075.119.182.119.322v9.142c0 .14-.039.247-.119.322a.423.423 0 0 1-.301.112zm-3.079-.014a.402.402 0 0 1-.308-.119.438.438 0 0 1-.112-.315v-.84c-.196.42-.481.744-.854.973a2.415 2.415 0 0 1-1.288.343c-.439 0-.84-.089-1.204-.266a2.123 2.123 0 0 1-.861-.742 1.861 1.861 0 0 1-.315-1.05c0-.504.13-.896.392-1.176.261-.28.695-.481 1.302-.602.606-.121 1.451-.182 2.534-.182h.294v-.518c0-.616-.126-1.066-.378-1.351-.252-.285-.649-.427-1.19-.427-.691 0-1.349.182-1.974.546l-.217.147c-.117.079-.217.119-.301.119a.29.29 0 0 1-.231-.105.38.38 0 0 1-.091-.259c0-.205.163-.406.49-.602.326-.187.69-.331 1.092-.434a4.77 4.77 0 0 1 1.19-.154c.821 0 1.435.215 1.841.644.406.429.609 1.078.609 1.946v3.99a.443.443 0 0 1-.112.315.405.405 0 0 1-.308.119zm-.42-3.346h-.266c-.896 0-1.582.037-2.058.112-.476.075-.812.203-1.008.385-.196.182-.294.446-.294.791 0 .392.149.716.448.973.298.257.667.385 1.106.385.606 0 1.103-.205 1.491-.616.387-.411.581-.933.581-1.568v-.462zm-8.932 3.052a.473.473 0 0 1-.189.224.53.53 0 0 1-.56.007.485.485 0 0 1-.203-.231l-4.06-9.184a.33.33 0 0 1 .091-.427.472.472 0 0 1 .301-.105c.177 0 .298.079.364.238l3.794 8.582 3.78-8.582c.065-.159.186-.238.364-.238.112 0 .212.035.301.105a.32.32 0 0 1 .133.259.373.373 0 0 1-.042.168l-4.074 9.184zm15.539-6.692c.131 0 .233.037.308.112.075.075.112.182.112.322v6.132c0 .14-.037.247-.112.322a.419.419 0 0 1-.308.112.443.443 0 0 1-.315-.112c-.079-.075-.119-.182-.119-.322v-6.132c0-.14.04-.247.119-.322a.438.438 0 0 1 .315-.112z"/>
    <path fill="#16D1A5" fill-rule="evenodd" d="M148 5a1 1 0 0 1 1 1v24a1 1 0 0 1-2 0V6a1 1 0 0 1 1-1z"/>
    <path fill="#FFF" fill-rule="evenodd" d="M12.384 34.325c-3.265-2.012-9.583-5.904-10.511-6.478C.002 26.566.002 24.523.002 24.523V11.47s0-2.224 1.888-3.339l10.494-6.468C16-.564 16-.564 19.622 1.667l10.479 6.458c1.897 1.178 1.896 3.341 1.896 3.341v13.058s.001 2.141-1.896 3.339l-10.483 6.46C16 36.555 16 36.555 12.384 34.325z"/>
    <path fill="url(#a)" d="M12.384 34.325c-3.265-2.012-9.583-5.904-10.511-6.478C.002 26.566.002 24.523.002 24.523V11.47s0-2.224 1.888-3.339l10.494-6.468C16-.564 16-.564 19.622 1.667l10.479 6.458c1.897 1.178 1.896 3.341 1.896 3.341v13.058s.001 2.141-1.896 3.339l-10.483 6.46C16 36.555 16 36.555 12.384 34.325z"/>
    <path fill="#FFF" fill-rule="evenodd" d="M23.01 12.007l-5.107 6.504 5.104 6.499h-3.806L16 20.934l-3.201 4.076H8.994l5.103-6.499-5.107-6.504h3.805L16 16.088l3.205-4.081h3.805z"/>
</svg>
